<svg width="35" height="25" viewBox="0 0 35 25" fill="none" xmlns="http://www.w3.org/2000/svg">
<path d="M0.597656 16.9106C0.597656 12.8742 1.9388 9.44971 4.62109 6.63721C7.30339 3.79867 11.2747 1.67627 16.5352 0.27002V3.86377C14.8945 4.35856 13.4883 4.99658 12.3164 5.77783C11.1706 6.55908 10.2591 7.45752 9.58203 8.47314C8.93099 9.46273 8.60547 10.4132 8.60547 11.3247C8.60547 11.9237 8.80078 12.4315 9.19141 12.8481C9.60807 13.2388 10.4154 13.7466 11.6133 14.3716C13.6185 15.4393 14.6211 17.0539 14.6211 19.2153C14.6211 20.8039 14.0352 22.0799 12.8633 23.0435C11.7174 23.981 10.194 24.4497 8.29297 24.4497C6.07943 24.4497 4.24349 23.7466 2.78516 22.3403C1.32682 20.908 0.597656 19.0981 0.597656 16.9106ZM18.1758 16.9106C18.1758 12.8742 19.5169 9.44971 22.1992 6.63721C24.8815 3.79867 28.8529 1.67627 34.1133 0.27002V3.86377C32.4727 4.35856 31.0664 4.99658 29.8945 5.77783C28.7487 6.55908 27.8372 7.45752 27.1602 8.47314C26.5091 9.46273 26.1836 10.4132 26.1836 11.3247C26.1836 11.9237 26.3789 12.4315 26.7695 12.8481C27.1862 13.2388 27.9935 13.7466 29.1914 14.3716C31.1966 15.4393 32.1992 17.0539 32.1992 19.2153C32.1992 20.8039 31.6133 22.0799 30.4414 23.0435C29.2956 23.981 27.7721 24.4497 25.8711 24.4497C23.6576 24.4497 21.8216 23.7466 20.3633 22.3403C18.9049 20.908 18.1758 19.0981 18.1758 16.9106Z" fill="#311F09"/>
</svg>
